<svg viewBox="0 0 24 24" fill="none" xmlns="http://www.w3.org/2000/svg">
  <path d="M5.042 15.165a2.528 2.528 0 0 1-2.52 2.523A2.528 2.528 0 0 1 0 15.165a2.528 2.528 0 0 1 2.522-2.523h2.52v2.523zm1.27 0a2.528 2.528 0 0 1 2.521-2.523 2.528 2.528 0 0 1 2.521 2.523v6.315A2.528 2.528 0 0 1 8.833 24a2.528 2.528 0 0 1-2.521-2.52v-6.315zM8.833 5.042a2.528 2.528 0 0 1-2.521-2.52A2.528 2.528 0 0 1 8.833 0a2.528 2.528 0 0 1 2.521 2.522v2.52H8.833zm0 1.27a2.528 2.528 0 0 1 2.521 2.521 2.528 2.528 0 0 1-2.521 2.521H2.522A2.528 2.528 0 0 1 0 8.833a2.528 2.528 0 0 1 2.522-2.521h6.311zm10.125 2.521a2.528 2.528 0 0 1 2.521-2.521A2.528 2.528 0 0 1 24 8.833a2.528 2.528 0 0 1-2.521 2.521h-2.521V8.833zm-1.27 0a2.528 2.528 0 0 1-2.521 2.521 2.528 2.528 0 0 1-2.521-2.521V2.522A2.528 2.528 0 0 1 15.167 0a2.528 2.528 0 0 1 2.521 2.522v6.311zm-2.521 10.125a2.528 2.528 0 0 1 2.521 2.521A2.528 2.528 0 0 1 15.167 24a2.528 2.528 0 0 1-2.521-2.521v-2.521h2.521zm0-1.27a2.528 2.528 0 0 1-2.521-2.521 2.528 2.528 0 0 1 2.521-2.521h6.312A2.528 2.528 0 0 1 24 15.165a2.528 2.528 0 0 1-2.521 2.521h-6.312z" fill="#4A154B"/>
</svg>
