<svg viewBox="0 0 24 24" fill="none" xmlns="http://www.w3.org/2000/svg">
  <path d="M21.53 7.112c-.33-1.342-1.433-2.403-2.812-2.637a4.315 4.315 0 0 0-8.187-1.8 4.9 4.9 0 0 0-8.632 4.6 3.337 3.337 0 0 0 .178 6.556H8.4v-2.533H2.444c-.625 0-1.133-.508-1.133-1.133 0-.625.508-1.133 1.133-1.133h.622c.156 0 .31-.044.444-.133a.755.755 0 0 0 .311-.622c0-.178-.067-.356-.178-.489l-.444-.444c-.356-.356-.356-.933 0-1.289.356-.356.933-.356 1.289 0l.444.444c.133.133.311.178.489.178.311 0 .622-.178.622-.622 0-.156-.044-.31-.133-.444L4.4 8.244c-.356-.356-.356-.933 0-1.289.356-.356.933-.356 1.289 0l.533.533c.133.133.311.178.489.178.311 0 .622-.178.622-.622V6.4c0-.444.356-.8.8-.8s.8.356.8.8v.644c0 .311.178.622.622.622.156 0 .31-.044.444-.178l.533-.533c.356-.356.933-.356 1.289 0 .356.356.356.933 0 1.289l-.533.533c-.133.133-.178.311-.178.444 0 .311.178.622.622.622.156 0 .31-.044.444-.178l.444-.444c.356-.356.933-.356 1.289 0 .356.356.356.933 0 1.289l-.444.444c-.133.133-.178.311-.178.489 0 .311.178.622.622.622h.622c.625 0 1.133.508 1.133 1.133 0 .625-.508 1.133-1.133 1.133H8.4v2.533h13.333c.889 0 1.6-.711 1.6-1.6a1.6 1.6 0 0 0-1.6-1.6h-.444c-.178 0-.356-.044-.489-.133-.311-.178-.489-.533-.489-.889 0-.178.067-.356.178-.489.311-.311.311-.8 0-1.111-.311-.311-.8-.311-1.111 0-.133.133-.311.178-.489.178-.356 0-.711-.178-.889-.489-.089-.133-.133-.311-.133-.489 0-.356.178-.711.489-.889.311-.311.311-.8 0-1.111-.311-.311-.8-.311-1.111 0-.133.133-.178.311-.178.489 0 .356-.178.711-.489.889-.133.089-.311.133-.489.133-.356 0-.711-.178-.889-.489-.089-.133-.133-.311-.133-.489 0-.356.178-.711.489-.889.311-.311.311-.8 0-1.111-.311-.311-.8-.311-1.111 0-.133.133-.178.311-.178.489 0 .356-.178.711-.489.889-.133.089-.311.133-.489.133h-.444c-.889 0-1.6-.711-1.6-1.6s.711-1.6 1.6-1.6h.622c.356 0 .711-.178.889-.489.089-.133.133-.311.133-.489 0-.356-.178-.711-.489-.889-.311-.311-.311-.8 0-1.111.311-.311.8-.311 1.111 0 .133.133.311.178.489.178.356 0 .711-.178.889-.489.089-.133.133-.311.133-.489 0-.356-.178-.711-.489-.889-.311-.311-.311-.8 0-1.111.311-.311.8-.311 1.111 0 .133.133.178.311.178.489 0 .356.178.711.489.889.133.089.311.133.489.133.356 0 .711-.178.889-.489.089-.133.133-.311.133-.489 0-.356-.178-.711-.489-.889-.311-.311-.311-.8 0-1.111.311-.311.8-.311 1.111 0 .133.133.178.311.178.489 0 .356.178.711.489.889.133.089.311.133.489.133h.444c.889 0 1.6.711 1.6 1.6z" fill="#5059C9"/>
</svg>
